<?xml version="1.0" standalone="no"?>
<!DOCTYPE svg PUBLIC "-//W3C//DTD SVG 20010904//EN" "http://www.w3.org/TR/2001/REC-SVG-20010904/DTD/svg10.dtd">
<svg version="1.0" xmlns="http://www.w3.org/2000/svg" width="128.000000pt" height="128.000000pt" viewBox="0 0 128.000000 128.000000" preserveAspectRatio="xMidYMid meet">

    <g transform="translate(0.000000,128.000000) scale(0.100000,-0.100000)" fill="#000000" stroke="none">
        <path d="M1077 1215 c-42 -25 -113 -75 -157 -110 -92 -74 -130 -85 -130 -36 0
20 -9 37 -31 55 -39 33 -51 33 -93 -5 -43 -37 -70 -35 -74 6 -5 40 -39 75 -73
75 -17 0 -42 -12 -62 -30 -31 -27 -37 -28 -72 -19 -48 14 -76 6 -120 -33 -24
-20 -35 -38 -33 -52 3 -24 313 -238 337 -234 37 7 10 32 -134 128 -86 57 -154
108 -152 114 2 5 15 18 29 29 25 19 26 19 244 -38 120 -32 223 -60 227 -62 4
-3 -35 -50 -88 -105 -52 -55 -125 -138 -162 -184 l-66 -83 -93 6 -93 6 -30
-31 c-57 -56 -31 -128 54 -152 44 -12 55 -23 35 -35 -17 -10 -11 -61 8 -78 20
-19 67 -23 77 -7 12 20 23 9 35 -35 24 -84 96 -111 151 -56 25 25 29 37 29 84
0 33 -5 59 -13 66 -21 16 -27 3 -27 -55 0 -76 -37 -107 -79 -65 -16 16 -38 89
-29 95 2 1 46 32 98 69 52 36 117 84 144 106 l49 39 70 -101 c39 -56 95 -139
125 -184 65 -98 81 -103 136 -43 43 47 51 75 37 125 -9 35 -8 41 19 72 18 20
30 45 30 62 0 34 -35 68 -75 73 -41 4 -43 31 -6 74 38 42 38 54 5 93 -18 22
-35 31 -55 31 -49 0 -38 38 36 130 81 100 155 226 155 263 0 16 -10 38 -25 52
-35 36 -70 31 -158 -20z m131 -7 c21 -21 14 -42 -43 -133 -122 -194 -384 -456
-600 -602 -170 -114 -223 -126 -175 -41 86 157 251 361 421 523 112 107 157
143 263 209 92 58 113 65 134 44z m-668 -63 c14 -17 5 -36 -15 -30 -49 15 -48
15 -35 30 16 19 34 19 50 0z m210 -72 c0 -11 -6 -14 -22 -9 -13 3 -29 6 -37 6
-11 0 -10 5 4 20 13 15 22 17 36 9 11 -5 19 -17 19 -26z m314 -514 c31 -118
56 -218 56 -222 0 -3 -14 -22 -31 -42 l-31 -35 -119 175 c-65 96 -119 178
-119 181 0 12 175 172 181 166 4 -4 32 -104 63 -223z m35 172 c8 -14 6 -23 -9
-36 -15 -14 -20 -15 -20 -4 0 8 -3 24 -6 37 -8 28 21 31 35 3z m-697 -137 l37
-6 -31 -47 c-17 -25 -32 -47 -34 -49 -6 -9 -79 13 -95 29 -55 55 8 92 123 73z
m749 -60 c9 -11 10 -20 2 -32 -15 -24 -26 -21 -34 10 -10 39 7 52 32 22z" />
        <path d="M180 924 c-51 -46 -66 -72 -51 -87 8 -8 25 2 61 38 28 27 50 55 50
62 0 26 -21 22 -60 -13z" />
        <path d="M341 796 c-22 -22 -31 -40 -27 -51 4 -12 10 -13 23 -6 33 17 66 60
60 75 -9 23 -19 20 -56 -18z" />
        <path d="M75 640 c-47 -47 -57 -62 -47 -72 10 -10 25 0 72 47 57 56 67 74 44
82 -5 2 -36 -24 -69 -57z" />
        <path d="M761 364 c-30 -34 -33 -54 -7 -54 19 0 79 67 72 79 -13 20 -33 12
-65 -25z" />
        <path d="M875 190 c-36 -36 -46 -53 -38 -61 15 -15 41 0 87 51 35 39 39 60 13
60 -7 0 -35 -22 -62 -50z" />
        <path d="M615 100 c-47 -47 -57 -62 -47 -72 10 -10 25 0 72 47 33 33 59 64 57
69 -8 23 -26 13 -82 -44z" />
    </g>
</svg>